@startuml
class customer.n.1{
}
class marketer.n.1{
}
class selling.n.1#gui.n.1{

}
class shopping_basket.n.1{
}
class item.n.3#shelf.n.1{
}
class item.n.3{
}
class shopping.n.2#gui.n.1{
}
customer.n.1 -- shopping.n.2#gui.n.1
shopping.n.2#gui.n.1 -- shopping_basket.n.1
shopping.n.2#gui.n.1 -- item.n.3#shelf.n.1
item.n.3 --* item.n.3#shelf.n.1
item.n.3 --* shopping_basket.n.1
selling.n.1#gui.n.1 -- item.n.3#shelf.n.1
selling.n.1#gui.n.1 -- marketer.n.1
@enduml