@startuml
class driver.n.1{
}
class pedal.n.2{
}
class accelerator.n.1 {
}
class brake_pedal.n.1{
}
class speedometer.n.1{
}
class automobile_engine.n.1{
}
class automobile.n.1{

}
driver.n.1 -- automobile.n.1
pedal.n.2 --* automobile.n.1
automobile_engine.n.1 --* automobile.n.1 
accelerator.n.1 --|> pedal.n.2
brake_pedal.n.1 --|> pedal.n.2
speedometer.n.1 --* automobile.n.1
@enduml